<svg width="538" height="111" viewBox="0 0 538 111" fill="none" xmlns="http://www.w3.org/2000/svg">
<path d="M69.4098 82.6951C65.5091 86.4429 60.9965 89.3493 55.872 91.4144C50.824 93.4795 45.5848 94.512 40.1544 94.512C28.9877 94.512 19.5036 90.5731 11.7021 82.6951C3.90071 74.8172 0 65.1419 0 53.6692C0 48.0859 1.03254 42.8084 3.09763 37.8369C5.16271 32.7889 8.10737 28.3911 11.9316 24.6433C15.8323 20.8191 20.3067 17.8744 25.3546 15.8094C30.4026 13.7443 35.6418 12.7117 41.0722 12.7117C52.3919 12.7117 61.9908 16.6507 69.8687 24.5286C77.7466 32.4065 81.6856 42.1201 81.6856 53.6692C81.6856 59.1761 80.6148 64.4536 78.4732 69.5016C76.4081 74.4731 73.387 78.8709 69.4098 82.6951ZM13.5378 53.6692C13.5378 66.1362 15.8323 75.888 20.4214 82.9246C25.0869 89.9612 31.5881 93.4795 39.925 93.4795C48.5677 93.4795 55.4131 89.8847 60.4611 82.6951C65.5855 75.4291 68.1478 65.7538 68.1478 53.6692C68.1478 41.2023 65.7768 31.4505 61.0347 24.4139C56.3692 17.3008 49.8297 13.7443 41.4164 13.7443C32.8501 13.7443 26.043 17.3773 20.995 24.6433C16.0235 31.8329 13.5378 41.5082 13.5378 53.6692Z" fill="white"/>
<path d="M126.218 77.4177C124.152 81.6244 120.902 85.5633 116.466 89.2346C112.106 92.8294 107.861 94.6267 103.731 94.6267C99.5244 94.6267 96.0443 93.403 93.2909 90.9555C90.5374 88.508 89.1607 85.4486 89.1607 81.7773C89.1607 77.4942 91.4553 73.517 96.0443 69.8457C100.633 66.1745 107.976 62.3885 118.072 58.4878L127.021 55.046C126.868 48.0094 125.95 43.0379 124.267 40.1315C122.584 37.2251 119.793 35.7718 115.892 35.7718C114.362 35.7718 112.986 36.0395 111.762 36.5749C110.538 37.1103 109.467 37.8752 108.55 38.8695C107.785 39.6343 107.058 40.5521 106.37 41.6229C105.758 42.6937 104.955 44.3764 103.96 46.6709C103.578 47.6652 103.272 48.3918 103.043 48.8507C102.813 49.2331 102.622 49.5773 102.469 49.8833C101.934 50.954 101.169 51.7189 100.175 52.1778C99.1802 52.6367 97.8035 52.8662 96.0443 52.8662C94.2852 52.8662 92.9085 52.5602 91.9142 51.9483C90.9199 51.26 90.4227 50.3804 90.4227 49.3096C90.4227 48.2388 90.8051 47.1298 91.57 45.9825C92.4113 44.7588 93.5586 43.688 95.0118 42.7702C98.2241 40.5521 101.972 38.6783 106.255 37.1486C110.615 35.6189 114.477 34.854 117.842 34.854C124.573 34.854 129.659 36.6132 133.101 40.1315C136.619 43.5733 138.379 48.736 138.379 55.6196C138.379 56.9963 138.34 58.679 138.264 60.6676C138.264 62.6562 138.187 65.7538 138.034 69.9605C137.881 73.3258 137.767 75.6968 137.69 77.0735C137.69 78.3738 137.69 79.4446 137.69 80.2859C137.69 83.5747 137.92 85.9075 138.379 87.2842C138.837 88.6609 139.602 89.3493 140.673 89.3493C141.591 89.3493 142.623 88.6609 143.771 87.2842C144.994 85.9075 145.989 84.3396 146.754 82.5804C147.06 82.1215 147.442 82.045 147.901 82.351C148.36 82.5804 148.436 82.9628 148.13 83.4982C146.448 86.0987 144.077 88.5845 141.017 90.9555C138.034 93.3265 135.396 94.512 133.101 94.512C130.654 94.512 128.818 93.7854 127.594 92.3322C126.447 90.879 125.873 88.6227 125.873 85.5633C125.873 84.1101 125.912 82.6187 125.988 81.089C126.065 79.5593 126.141 78.3355 126.218 77.4177ZM100.06 77.5324C100.06 80.5153 101.092 83.0393 103.157 85.1044C105.299 87.093 107.976 88.1256 111.188 88.202C114.171 88.202 117.192 86.7871 120.252 83.9571C123.311 81.0507 125.338 78.1061 126.332 75.1232C126.562 70.3046 126.715 66.4039 126.791 63.421C126.944 60.4381 127.021 58.4113 127.021 57.3405V55.8491L118.301 59.635C111.265 62.6179 106.446 65.3714 103.846 67.8954C101.322 70.4194 100.06 73.6317 100.06 77.5324Z" fill="white"/>
<path d="M166.195 93.25C164.283 93.1735 162.945 93.1353 162.18 93.1353C161.415 93.1353 160.88 93.1353 160.574 93.1353C160.344 93.1353 159.924 93.1353 159.312 93.1353C158.776 93.1353 157.667 93.1735 155.985 93.25C153.537 93.3265 151.74 93.3647 150.592 93.3647C149.445 93.3647 148.527 93.3647 147.839 93.3647C147.38 93.3647 147.151 93.2118 147.151 92.9058C147.151 92.5234 147.38 92.3322 147.839 92.3322C150.287 92.3322 151.778 91.6821 152.313 90.3819C152.925 89.0051 153.231 85.4486 153.231 79.7122V15.9241C153.231 14.012 153.155 12.4823 153.002 11.335C152.925 10.1113 152.734 9.15521 152.428 8.46685C152.046 7.54903 151.434 6.9754 150.592 6.74594C149.751 6.51649 148.183 6.59297 145.889 6.9754C145.353 7.05188 145.086 6.93715 145.086 6.63121C145.086 6.24879 145.353 6.01934 145.889 5.94285C148.566 5.48395 151.472 4.68086 154.608 3.53359C157.82 2.38632 160.497 1.23905 162.639 0.0917836C162.868 -0.0611882 163.251 -0.0229464 163.786 0.206509C164.398 0.435964 164.704 0.665418 164.704 0.894868V72.255L182.487 53.8987C184.628 51.7571 186.234 49.7303 187.305 47.8182C188.452 45.8296 189.102 44.0322 189.255 42.426C189.332 40.7433 188.835 39.4431 187.764 38.5253C186.693 37.531 185.164 37.0338 183.175 37.0338C182.793 37.0338 182.601 36.8809 182.601 36.5749C182.601 36.269 182.793 36.116 183.175 36.116C183.787 36.116 184.743 36.1543 186.043 36.2308C187.343 36.2308 189.485 36.2308 192.468 36.2308C194.303 36.3072 195.527 36.3455 196.139 36.3455C196.751 36.3455 197.172 36.3455 197.401 36.3455C197.707 36.3455 198.395 36.3455 199.466 36.3455C200.537 36.269 202.373 36.2308 204.973 36.2308C206.656 36.1543 207.765 36.116 208.3 36.116C208.836 36.116 209.18 36.116 209.333 36.116C209.715 36.116 209.906 36.269 209.906 36.5749C209.906 36.8809 209.715 37.0338 209.333 37.0338C206.197 37.0338 202.526 38.4488 198.319 41.2787C194.112 44.1087 189.102 48.5448 183.29 54.5871L182.716 55.1607L192.468 71.5666C196.751 78.9856 200.346 84.3013 203.252 87.5137C206.235 90.726 209.103 92.3322 211.857 92.3322C212.316 92.3322 212.545 92.5234 212.545 92.9058C212.621 93.2118 212.392 93.3647 211.857 93.3647H199.237C197.936 93.3647 196.866 93.2883 196.024 93.1353C195.183 92.9058 194.418 92.5617 193.73 92.1028C192.277 91.3379 190.747 89.8847 189.141 87.7431C187.611 85.5251 185.508 81.8921 182.831 76.8441L175.144 62.9621L164.704 73.517V92.3322H171.588C172.046 92.3322 172.276 92.5234 172.276 92.9058C172.276 93.2118 172.046 93.3647 171.588 93.3647C171.282 93.3647 170.784 93.3647 170.096 93.3647C169.408 93.3647 168.107 93.3265 166.195 93.25Z" fill="white"/>
<path d="M261.585 110.8C256.766 110.8 252.439 109.863 248.602 107.99C244.854 106.116 241.865 103.483 239.634 100.093C237.403 96.7017 236.288 92.7309 236.288 88.1801C236.288 87.6447 236.288 87.1539 236.288 86.7077C236.288 86.1723 236.332 85.637 236.421 85.1016C232.138 84.6554 228.212 83.7631 224.643 82.4246C221.163 81.0861 218.397 79.2569 216.344 76.9368C214.292 74.5276 213.266 71.5829 213.266 68.1029C213.266 64.8905 214.247 61.8566 216.21 59.0012C218.173 56.0565 220.627 53.3349 223.572 50.8365C226.606 48.2487 229.774 46.0179 233.075 44.144C239.232 40.3963 245.255 37.5855 251.145 35.7116C249.985 34.2839 249.048 32.6331 248.334 30.7592C247.709 28.7961 247.397 26.9223 247.397 25.1376C247.397 21.9253 248.557 19.0698 250.877 16.5713C253.286 13.9836 256.365 11.7974 260.112 10.0128C263.86 8.22815 267.831 6.84505 272.025 5.8635C276.219 4.88195 280.1 4.39117 283.67 4.39117C293.128 4.39117 297.858 7.29121 297.858 13.0913C297.858 15.7683 296.831 18.0883 294.779 20.0514C292.727 22.0145 290.451 22.9961 287.953 22.9961C285.544 22.9961 284.339 22.3714 284.339 21.1222C284.339 20.2299 284.919 19.7837 286.079 19.7837C286.436 19.7837 286.882 19.8729 287.418 20.0514C287.596 20.1406 287.908 20.1852 288.354 20.1852C289.514 20.1852 290.63 19.516 291.701 18.1775C293.128 16.4821 293.842 14.8759 293.842 13.359C293.842 10.9497 292.459 9.2097 289.693 8.13892C287.908 7.51429 285.633 7.20198 282.867 7.20198C279.297 7.20198 275.728 7.8266 272.159 9.07585C268.679 10.2359 265.466 11.8867 262.522 14.0282C259.666 16.0806 257.346 18.4452 255.562 21.1222C253.777 23.7991 252.885 26.6546 252.885 29.6885C252.885 31.83 253.42 33.5254 254.491 34.7747C257.882 33.7931 260.871 33.3024 263.459 33.3024C268.634 33.3024 271.222 34.3285 271.222 36.3809C271.222 37.5409 270.463 38.567 268.946 39.4594C267.43 40.2625 265.779 40.664 263.994 40.664C259.533 40.664 255.74 39.504 252.617 37.184C250.119 37.8978 247.486 39.0132 244.72 40.5301C241.954 42.0471 239.054 43.921 236.02 46.1518C231.915 49.1857 228.346 52.5765 225.312 56.3242C222.278 59.9827 220.761 63.9089 220.761 68.1029C220.761 76.0445 226.16 80.4615 236.957 81.3538C237.938 75.0183 240.035 69.3075 243.248 64.2213C246.549 59.135 250.877 54.9411 256.231 51.6395C259.265 49.7657 262.7 48.2933 266.537 47.2226C270.463 46.0625 274.39 45.1702 278.316 44.5456C282.331 43.8317 285.99 43.2071 289.291 42.6717C293.664 41.9579 297.188 41.1548 299.865 40.2625C302.542 39.3701 304.55 38.4332 305.889 37.4516C306.87 36.7378 307.584 35.9347 308.03 35.0424C308.566 34.1501 308.833 33.347 308.833 32.6331C308.833 32.0977 308.744 31.6069 308.565 31.1608C308.387 30.6254 308.61 30.3577 309.235 30.3577C309.859 30.3577 310.35 30.7592 310.707 31.5623C311.064 32.3654 311.242 33.1239 311.242 33.8377C311.242 35.6224 310.35 37.5409 308.565 39.5932C306.602 41.5563 304.238 43.0286 301.472 44.0102C298.705 44.9918 295.805 45.7502 292.771 46.2856C289.738 46.821 286.748 47.4456 283.804 48.1595C285.499 49.7657 286.347 52.1749 286.347 55.3873C286.347 61.9905 282.599 68.3259 275.103 74.3937C269.928 78.4984 264.396 81.3538 258.506 82.96C252.706 84.4769 246.46 85.2354 239.768 85.2354C239.678 85.7708 239.589 86.3508 239.5 86.9754C239.5 87.5108 239.5 88.0462 239.5 88.5816C239.5 94.5602 241.508 99.4233 245.523 103.171C249.628 106.919 254.982 108.793 261.585 108.793C263.816 108.793 265.734 108.034 267.34 106.517C268.946 105.09 269.75 103.439 269.75 101.565C269.75 100.94 269.616 100.316 269.348 99.691C269.259 99.5125 269.214 99.2895 269.214 99.0218C269.214 98.4864 269.571 98.2187 270.285 98.2187C271.266 98.2187 271.757 99.3787 271.757 101.699C271.757 104.108 270.731 106.205 268.679 107.99C266.626 109.863 264.262 110.8 261.585 110.8ZM263.325 38.5224C265.556 38.5224 266.85 37.987 267.206 36.9163C267.296 36.0239 266.002 35.5778 263.325 35.5778C261.183 35.5778 258.774 35.8455 256.097 36.3809C258.328 37.8086 260.737 38.5224 263.325 38.5224ZM240.169 81.4877C245.969 81.4877 251.903 80.5507 257.971 78.6768C264.128 76.803 269.303 73.9476 273.497 70.1106C279.119 65.0243 281.93 59.8043 281.93 54.4504C281.93 50.5241 280.234 48.561 276.844 48.561C275.862 48.561 273.676 48.9626 270.285 49.7657C253.063 56.1904 243.025 66.7644 240.169 81.4877Z" fill="#FDD700"/>
<path d="M376.314 91.988C372.566 92.9823 369.507 93.6324 367.136 93.9384C364.841 94.3208 362.623 94.512 360.482 94.512C347.862 94.512 337.46 90.726 329.276 83.1541C321.092 75.5056 317 65.7156 317 53.784C317 41.8524 321.283 32.0241 329.849 24.2992C338.416 16.5742 349.085 12.7117 361.858 12.7117C366.524 12.7117 371.495 13.1706 376.773 14.0885C382.127 15.0063 386.486 16.1153 389.852 17.4155C390.005 17.4155 390.119 17.492 390.196 17.645C390.272 17.7215 390.31 17.8745 390.31 18.1039C390.463 20.3984 390.693 24.7963 390.999 31.2975C391.305 37.7987 391.496 41.8906 391.572 43.5733C391.649 43.9557 391.496 44.1852 391.114 44.2616C390.808 44.2616 390.616 44.0704 390.54 43.688C390.081 39.5578 389.278 35.8101 388.131 32.4448C386.983 29.003 385.53 26.0583 383.771 23.6108C381.324 20.322 378.302 17.8745 374.708 16.2683C371.113 14.5856 366.906 13.7443 362.088 13.7443C352.374 13.7443 344.687 17.3391 339.028 24.5286C333.368 31.7182 330.538 41.4317 330.538 53.6692C330.538 66.0597 333.176 75.8115 338.454 82.9246C343.731 89.9612 351.036 93.4795 360.367 93.4795C364.115 93.4795 367.709 92.9823 371.151 91.988C374.669 90.9937 377.958 89.5405 381.018 87.6284C381.171 87.3225 381.247 86.5959 381.247 85.4486C381.324 84.2248 381.362 80.7065 381.362 74.8937C381.362 72.8286 381.324 70.7253 381.247 68.5837C381.247 66.4422 381.209 65.1802 381.132 64.7978C380.52 63.0386 379.679 61.7001 378.608 60.7823C377.614 59.788 376.276 59.0996 374.593 58.7172C372.91 58.5643 369.966 58.4113 365.759 58.2583C361.629 58.1053 356.39 57.9906 350.041 57.9141C349.659 57.9141 349.506 57.7994 349.582 57.57C349.659 57.264 349.85 57.111 350.156 57.111C358.034 57.111 365.453 57.0346 372.413 56.8816C379.45 56.6521 386.142 56.308 392.49 55.8491C392.643 55.8491 392.796 55.9638 392.949 56.1932C393.102 56.3462 393.179 56.5374 393.179 56.7669C393.102 59.2909 393.064 63.421 393.064 69.1574C393.064 74.8937 393.064 83.1158 393.064 93.8237C393.064 94.0531 392.949 94.1678 392.72 94.1678C392.49 94.1678 392.261 94.0531 392.031 93.8237C389.89 92.6764 388.092 91.8733 386.639 91.4144C385.262 90.879 384.077 90.6113 383.083 90.6113C382.471 90.6113 381.706 90.6878 380.788 90.8408C379.947 90.9937 378.455 91.3761 376.314 91.988Z" fill="white"/>
<path d="M411.142 93.25C408.542 93.3265 406.668 93.3647 405.521 93.3647C404.373 93.3647 403.456 93.3647 402.767 93.3647C402.308 93.3647 402.079 93.2118 402.079 92.9058C402.079 92.5234 402.308 92.3322 402.767 92.3322C404.985 92.3322 406.439 92.0263 407.127 91.4144C407.815 90.8025 408.274 89.6935 408.504 88.0873C408.657 87.1695 408.771 86.0605 408.848 84.7602C408.924 83.46 408.963 81.7773 408.963 79.7122V51.1452C408.963 49.845 408.542 48.5065 407.701 47.1298C406.859 45.6766 405.521 44.1087 403.685 42.426C403.532 42.273 403.456 42.1583 403.456 42.0818C403.456 41.9289 403.532 41.8141 403.685 41.7376C405.062 41.2023 406.974 40.2462 409.421 38.8695C411.945 37.4163 413.666 36.269 414.584 35.4277C414.737 35.2747 414.852 35.2365 414.928 35.3129C415.005 35.3129 415.12 35.3894 415.273 35.5424C416.573 36.7661 417.72 38.793 418.714 41.6229C419.709 44.4528 420.206 47.2445 420.206 49.998V50.5716C420.741 47.8947 421.583 45.5619 422.73 43.5733C423.877 41.5082 425.369 39.749 427.204 38.2958C428.351 37.1486 429.613 36.3072 430.99 35.7718C432.443 35.16 434.05 34.854 435.809 34.854C437.568 34.854 438.945 35.0835 439.939 35.5424C440.933 35.9248 441.43 36.5367 441.43 37.378C441.43 38.9077 440.704 40.6286 439.25 42.5407C437.874 44.4528 436.344 45.4089 434.661 45.4089H429.728C427.51 45.4089 425.827 45.5619 424.68 45.8678C423.609 46.0973 422.768 46.5562 422.156 47.2445C421.468 48.0859 420.971 49.3861 420.665 51.1452C420.435 52.9044 420.321 55.5814 420.321 59.1761V92.3322H427.893C428.351 92.3322 428.581 92.5234 428.581 92.9058C428.581 93.2118 428.351 93.3647 427.893 93.3647C427.74 93.3647 427.395 93.3647 426.86 93.3647C426.325 93.3647 425.216 93.3265 423.533 93.25C420.856 93.25 418.982 93.25 417.911 93.25C416.84 93.1735 416.114 93.1353 415.731 93.1353C415.502 93.1353 415.081 93.1353 414.469 93.1353C413.858 93.1353 412.749 93.1735 411.142 93.25Z" fill="white"/>
<path d="M463.154 17.9892C463.154 20.0543 462.389 21.8516 460.859 23.3813C459.33 24.8346 457.494 25.5612 455.353 25.5612C453.211 25.5612 451.375 24.8346 449.846 23.3813C448.392 21.8516 447.666 20.0543 447.666 17.9892C447.666 15.8476 448.392 14.012 449.846 12.4823C451.375 10.9526 453.211 10.1877 455.353 10.1877C457.494 10.1877 459.33 10.9526 460.859 12.4823C462.389 14.012 463.154 15.8476 463.154 17.9892ZM451.681 93.25C449.081 93.3265 447.207 93.3647 446.06 93.3647C444.912 93.3647 443.995 93.3647 443.306 93.3647C442.847 93.3647 442.618 93.2118 442.618 92.9058C442.618 92.5234 442.847 92.3322 443.306 92.3322C446.366 92.3322 448.278 91.7586 449.043 90.6113C449.884 89.3876 450.305 86.0987 450.305 80.7448V50.6863C450.305 46.7856 449.922 44.3381 449.157 43.3438C448.392 42.3495 446.404 42.1966 443.192 42.8849C442.733 43.0379 442.427 42.9614 442.274 42.6555C442.197 42.3495 442.388 42.1201 442.847 41.9671C445.448 41.3552 448.278 40.4374 451.337 39.2137C454.397 37.9134 457.188 36.4602 459.712 34.854C459.942 34.7011 460.324 34.7393 460.859 34.9688C461.471 35.1982 461.777 35.4277 461.777 35.6571V80.7448C461.777 86.1752 462.16 89.464 462.925 90.6113C463.766 91.7586 465.64 92.3322 468.546 92.3322C469.005 92.3322 469.235 92.5234 469.235 92.9058C469.235 93.2118 469.005 93.3647 468.546 93.3647C467.858 93.3647 466.94 93.3647 465.793 93.3647C464.722 93.3647 463.001 93.3265 460.63 93.25C459.1 93.1735 458.03 93.1353 457.418 93.1353C456.882 93.1353 456.5 93.1353 456.27 93.1353C456.041 93.1353 455.62 93.1353 455.008 93.1353C454.397 93.1353 453.287 93.1735 451.681 93.25Z" fill="white"/>
<path d="M519.498 82.0068C516.592 85.984 513.15 89.0816 509.173 91.2997C505.272 93.4412 501.18 94.512 496.897 94.512C490.243 94.512 484.774 92.1028 480.491 87.2842C476.208 82.3892 474.066 76.2322 474.066 68.8132C474.066 59.1761 477.241 51.107 483.589 44.6058C489.937 38.1046 497.624 34.854 506.649 34.854C508.943 34.854 511.162 35.1982 513.303 35.8866C515.445 36.4984 517.51 37.4545 519.498 38.7547V16.2683C519.498 14.3562 519.422 12.8265 519.269 11.6792C519.116 10.4554 518.886 9.49939 518.581 8.81102C518.198 7.89321 517.586 7.31958 516.745 7.09012C515.904 6.86067 514.297 6.97539 511.926 7.43431C511.467 7.51079 511.238 7.39606 511.238 7.09012C511.238 6.7077 511.467 6.47825 511.926 6.40176C514.374 5.94285 517.127 5.13976 520.187 3.9925C523.246 2.76874 526.038 1.46851 528.562 0.0917836C528.791 -0.0611882 529.212 -0.0229464 529.824 0.206509C530.512 0.435964 530.856 0.665418 530.856 0.894868V79.7122C530.856 85.831 531.162 89.464 531.774 90.6113C532.462 91.7586 534.107 92.3322 536.707 92.3322C537.166 92.3322 537.396 92.5234 537.396 92.9058C537.396 93.2118 537.166 93.3647 536.707 93.3647C532.96 93.3647 529.671 93.4412 526.841 93.5942C524.087 93.8237 521.831 94.1296 520.072 94.512C519.613 94.5885 519.269 94.5503 519.039 94.3973C518.81 94.2443 518.695 93.9384 518.695 93.4795C518.695 93.403 518.695 93.2883 518.695 93.1353C518.695 92.9823 518.734 92.6764 518.81 92.2175C519.039 90.0759 519.192 88.2403 519.269 86.7106C519.422 85.1044 519.498 83.5365 519.498 82.0068ZM502.633 36.9191C496.974 36.9191 492.652 39.1372 489.669 43.5733C486.763 48.0094 485.31 54.5488 485.31 63.1916C485.31 70.993 487.031 77.4177 490.472 82.4657C493.914 87.4372 498.427 89.9229 504.01 89.9229C506.917 89.9229 509.708 89.1199 512.385 87.5137C515.062 85.831 517.433 83.46 519.498 80.4006V47.7034C517.051 44.3381 514.336 41.6994 511.353 39.7873C508.446 37.8752 505.54 36.9191 502.633 36.9191Z" fill="white"/>
</svg>
